<svg width="20" height="20" viewBox="0 0 10 10" fill="none" xmlns="http://www.w3.org/2000/svg">
<mask id="mask0_10_111" style="mask-type:alpha" maskUnits="userSpaceOnUse" x="0" y="0" width="10" height="10">
<rect width="10" height="10" fill="#D9D9D9"/>
</mask>
<g mask="url(#mask0_10_111)">
<path d="M2.60417 7.29167C2.95833 7.02083 3.35417 6.80722 3.79167 6.65083C4.22917 6.49472 4.6875 6.41667 5.16667 6.41667C5.64583 6.41667 6.10417 6.49472 6.54167 6.65083C6.97917 6.80722 7.375 7.02083 7.72917 7.29167C7.97222 7.00694 8.16153 6.68403 8.29708 6.32292C8.43236 5.96181 8.5 5.57639 8.5 5.16667C8.5 4.24306 8.17542 3.45653 7.52625 2.80708C6.87681 2.15792 6.09028 1.83333 5.16667 1.83333C4.24306 1.83333 3.45667 2.15792 2.8075 2.80708C2.15806 3.45653 1.83333 4.24306 1.83333 5.16667C1.83333 5.57639 1.90111 5.96181 2.03667 6.32292C2.17194 6.68403 2.36111 7.00694 2.60417 7.29167ZM5.16667 5.58333C4.75694 5.58333 4.41139 5.44278 4.13 5.16167C3.84889 4.88028 3.70833 4.53472 3.70833 4.125C3.70833 3.71528 3.84889 3.36972 4.13 3.08833C4.41139 2.80722 4.75694 2.66667 5.16667 2.66667C5.57639 2.66667 5.92194 2.80722 6.20333 3.08833C6.48444 3.36972 6.625 3.71528 6.625 4.125C6.625 4.53472 6.48444 4.88028 6.20333 5.16167C5.92194 5.44278 5.57639 5.58333 5.16667 5.58333ZM5.16667 9.33333C4.59028 9.33333 4.04861 9.22389 3.54167 9.005C3.03472 8.78639 2.59375 8.48958 2.21875 8.11458C1.84375 7.73958 1.54694 7.29861 1.32833 6.79167C1.10944 6.28472 1 5.74306 1 5.16667C1 4.59028 1.10944 4.04861 1.32833 3.54167C1.54694 3.03472 1.84375 2.59375 2.21875 2.21875C2.59375 1.84375 3.03472 1.54681 3.54167 1.32792C4.04861 1.10931 4.59028 1 5.16667 1C5.74306 1 6.28472 1.10931 6.79167 1.32792C7.29861 1.54681 7.73958 1.84375 8.11458 2.21875C8.48958 2.59375 8.78639 3.03472 9.005 3.54167C9.22389 4.04861 9.33333 4.59028 9.33333 5.16667C9.33333 5.74306 9.22389 6.28472 9.005 6.79167C8.78639 7.29861 8.48958 7.73958 8.11458 8.11458C7.73958 8.48958 7.29861 8.78639 6.79167 9.005C6.28472 9.22389 5.74306 9.33333 5.16667 9.33333ZM5.16667 8.5C5.53472 8.5 5.88194 8.44625 6.20833 8.33875C6.53472 8.23097 6.83333 8.07639 7.10417 7.875C6.83333 7.67361 6.53472 7.51903 6.20833 7.41125C5.88194 7.30375 5.53472 7.25 5.16667 7.25C4.79861 7.25 4.45139 7.30375 4.125 7.41125C3.79861 7.51903 3.5 7.67361 3.22917 7.875C3.5 8.07639 3.79861 8.23097 4.125 8.33875C4.45139 8.44625 4.79861 8.5 5.16667 8.5ZM5.16667 4.75C5.34722 4.75 5.49653 4.69097 5.61458 4.57292C5.73264 4.45486 5.79167 4.30556 5.79167 4.125C5.79167 3.94444 5.73264 3.79514 5.61458 3.67708C5.49653 3.55903 5.34722 3.5 5.16667 3.5C4.98611 3.5 4.83681 3.55903 4.71875 3.67708C4.60069 3.79514 4.54167 3.94444 4.54167 4.125C4.54167 4.30556 4.60069 4.45486 4.71875 4.57292C4.83681 4.69097 4.98611 4.75 5.16667 4.75Z" fill="#1C1B1F"/>
</g>
</svg>
