<svg width="20" height="20" viewBox="0 0 10 10" fill="none" xmlns="http://www.w3.org/2000/svg">
<mask id="mask0_10_114" style="mask-type:alpha" maskUnits="userSpaceOnUse" x="0" y="0" width="10" height="10">
<rect width="10" height="10" fill="#D9D9D9"/>
</mask>
<g mask="url(#mask0_10_114)">
<path d="M1.25 8.75V2.91667H2.91667V1.25H7.08333V4.58333H8.75V8.75H5.41667V7.08333H4.58333V8.75H1.25ZM2.08333 7.91667H2.91667V7.08333H2.08333V7.91667ZM2.08333 6.25H2.91667V5.41667H2.08333V6.25ZM2.08333 4.58333H2.91667V3.75H2.08333V4.58333ZM3.75 6.25H4.58333V5.41667H3.75V6.25ZM3.75 4.58333H4.58333V3.75H3.75V4.58333ZM3.75 2.91667H4.58333V2.08333H3.75V2.91667ZM5.41667 6.25H6.25V5.41667H5.41667V6.25ZM5.41667 4.58333H6.25V3.75H5.41667V4.58333ZM5.41667 2.91667H6.25V2.08333H5.41667V2.91667ZM7.08333 7.91667H7.91667V7.08333H7.08333V7.91667ZM7.08333 6.25H7.91667V5.41667H7.08333V6.25Z" fill="#1C1B1F"/>
</g>
</svg>
