<svg width="20" height="20" viewBox="0 0 10 10" fill="none" xmlns="http://www.w3.org/2000/svg">
<mask id="mask0_10_117" style="mask-type:alpha" maskUnits="userSpaceOnUse" x="0" y="0" width="10" height="10">
<rect width="10" height="10" fill="#D9D9D9"/>
</mask>
<g mask="url(#mask0_10_117)">
<path d="M8.3125 8.75C7.41667 8.75 6.54347 8.55028 5.69292 8.15083C4.84208 7.75167 4.08861 7.22389 3.4325 6.5675C2.77611 5.91139 2.24833 5.15792 1.84917 4.30708C1.44972 3.45653 1.25 2.58333 1.25 1.6875C1.25 1.5625 1.29167 1.45833 1.375 1.375C1.45833 1.29167 1.5625 1.25 1.6875 1.25H3.375C3.47222 1.25 3.55903 1.28125 3.63542 1.34375C3.71181 1.40625 3.75694 1.48611 3.77083 1.58333L4.04167 3.04167C4.05556 3.13889 4.05389 3.22736 4.03667 3.30708C4.01917 3.38708 3.97917 3.45833 3.91667 3.52083L2.90625 4.54167C3.19792 5.04167 3.56431 5.51042 4.00542 5.94792C4.44625 6.38542 4.93056 6.76389 5.45833 7.08333L6.4375 6.10417C6.5 6.04167 6.58167 5.99472 6.6825 5.96333C6.78306 5.93222 6.88194 5.92361 6.97917 5.9375L8.41667 6.22917C8.51389 6.25 8.59375 6.29681 8.65625 6.36958C8.71875 6.44264 8.75 6.52778 8.75 6.625V8.3125C8.75 8.4375 8.70833 8.54167 8.625 8.625C8.54167 8.70833 8.4375 8.75 8.3125 8.75ZM2.51042 3.75L3.19792 3.0625L3.02083 2.08333H2.09375C2.12847 2.36806 2.17708 2.64931 2.23958 2.92708C2.30208 3.20486 2.39236 3.47917 2.51042 3.75ZM6.23958 7.47917C6.51042 7.59722 6.78653 7.69097 7.06792 7.76042C7.34903 7.82986 7.63194 7.875 7.91667 7.89583V6.97917L6.9375 6.78125L6.23958 7.47917Z" fill="#1C1B1F"/>
</g>
</svg>
