<svg width="20" height="20" viewBox="0 0 20 20" fill="none" xmlns="http://www.w3.org/2000/svg">
<path d="M11.6668 7.33337C11.6668 7.25004 11.6946 7.17018 11.7502 7.09379C11.8057 7.0174 11.8682 6.96532 11.9377 6.93754C12.3543 6.78476 12.7814 6.66671 13.2189 6.58337C13.6564 6.50004 14.1113 6.45837 14.5835 6.45837C14.8891 6.45837 15.1877 6.47573 15.4793 6.51046C15.771 6.54518 16.0557 6.59726 16.3335 6.66671C16.4168 6.69448 16.4932 6.74657 16.5627 6.82296C16.6321 6.89935 16.6668 6.98615 16.6668 7.08337C16.6668 7.23615 16.6147 7.35421 16.5106 7.43754C16.4064 7.52087 16.2779 7.54171 16.1252 7.50004C15.8891 7.4306 15.6425 7.37851 15.3856 7.34379C15.1286 7.30907 14.8613 7.29171 14.5835 7.29171C14.1807 7.29171 13.7918 7.3299 13.4168 7.40629C13.0418 7.48268 12.6738 7.59726 12.3127 7.75004C12.1182 7.81949 11.962 7.81601 11.8439 7.73962C11.7259 7.66324 11.6668 7.52782 11.6668 7.33337ZM11.6668 11.9167C11.6668 11.8334 11.6946 11.75 11.7502 11.6667C11.8057 11.5834 11.8682 11.5278 11.9377 11.5C12.3543 11.3473 12.7814 11.2327 13.2189 11.1563C13.6564 11.0799 14.1113 11.0417 14.5835 11.0417C14.8891 11.0417 15.1877 11.0591 15.4793 11.0938C15.771 11.1285 16.0557 11.1806 16.3335 11.25C16.4168 11.2778 16.4932 11.3299 16.5627 11.4063C16.6321 11.4827 16.6668 11.5695 16.6668 11.6667C16.6668 11.8195 16.6147 11.9375 16.5106 12.0209C16.4064 12.1042 16.2779 12.125 16.1252 12.0834C15.8891 12.0139 15.6425 11.9618 15.3856 11.9271C15.1286 11.8924 14.8613 11.875 14.5835 11.875C14.1807 11.875 13.7918 11.9098 13.4168 11.9792C13.0418 12.0487 12.6738 12.1598 12.3127 12.3125C12.1182 12.382 11.962 12.382 11.8439 12.3125C11.7259 12.2431 11.6668 12.1112 11.6668 11.9167ZM11.6668 9.62504C11.6668 9.54171 11.6946 9.46185 11.7502 9.38546C11.8057 9.30907 11.8682 9.25698 11.9377 9.22921C12.3543 9.07643 12.7814 8.95837 13.2189 8.87504C13.6564 8.79171 14.1113 8.75004 14.5835 8.75004C14.8891 8.75004 15.1877 8.7674 15.4793 8.80212C15.771 8.83685 16.0557 8.88893 16.3335 8.95837C16.4168 8.98615 16.4932 9.03824 16.5627 9.11462C16.6321 9.19101 16.6668 9.27782 16.6668 9.37504C16.6668 9.52782 16.6147 9.64587 16.5106 9.72921C16.4064 9.81254 16.2779 9.83337 16.1252 9.79171C15.8891 9.72226 15.6425 9.67018 15.3856 9.63546C15.1286 9.60074 14.8613 9.58337 14.5835 9.58337C14.1807 9.58337 13.7918 9.62157 13.4168 9.69796C13.0418 9.77435 12.6738 9.88893 12.3127 10.0417C12.1182 10.1112 11.962 10.1077 11.8439 10.0313C11.7259 9.9549 11.6668 9.81949 11.6668 9.62504ZM5.16683 13.75C5.91683 13.75 6.64252 13.8368 7.34391 14.0105C8.0453 14.1841 8.73627 14.4445 9.41683 14.7917V5.89587C8.79183 5.47921 8.11475 5.15629 7.38558 4.92712C6.65641 4.69796 5.91683 4.58337 5.16683 4.58337C4.63905 4.58337 4.12169 4.64935 3.61475 4.78129C3.1078 4.91324 2.59739 5.07643 2.0835 5.27087V14.3125C2.51405 14.1181 3.00363 13.9757 3.55225 13.8855C4.10086 13.7952 4.63905 13.75 5.16683 13.75ZM10.6668 14.7917C11.3613 14.4445 12.0418 14.1841 12.7085 14.0105C13.3752 13.8368 14.0835 13.75 14.8335 13.75C15.3613 13.75 15.9064 13.7917 16.4689 13.875C17.0314 13.9584 17.5141 14.0695 17.9168 14.2084V5.27087C17.4446 5.03476 16.9446 4.86115 16.4168 4.75004C15.8891 4.63893 15.3613 4.58337 14.8335 4.58337C14.0835 4.58337 13.3578 4.69796 12.6564 4.92712C11.955 5.15629 11.2918 5.47921 10.6668 5.89587V14.7917ZM10.0418 16.4375C9.93072 16.4375 9.83002 16.4271 9.73975 16.4063C9.64947 16.3855 9.56961 16.3473 9.50016 16.2917C8.84739 15.8889 8.15294 15.5764 7.41683 15.3542C6.68072 15.132 5.93072 15.0209 5.16683 15.0209C4.65294 15.0209 4.15294 15.0834 3.66683 15.2084C3.18072 15.3334 2.69461 15.4862 2.2085 15.6667C1.88905 15.8195 1.58002 15.7987 1.28141 15.6042C0.982802 15.4098 0.833496 15.132 0.833496 14.7709V5.12504C0.833496 4.91671 0.882107 4.72574 0.979329 4.55212C1.07655 4.37851 1.22239 4.2431 1.41683 4.14587C2.00016 3.8681 2.6078 3.66324 3.23975 3.53129C3.87169 3.39935 4.51405 3.33337 5.16683 3.33337C6.04183 3.33337 6.89252 3.45143 7.71891 3.68754C8.5453 3.92365 9.31961 4.28476 10.0418 4.77087C10.7502 4.28476 11.5106 3.92365 12.3231 3.68754C13.1356 3.45143 13.9724 3.33337 14.8335 3.33337C15.4863 3.33337 16.1252 3.39935 16.7502 3.53129C17.3752 3.66324 17.9793 3.8681 18.5627 4.14587C18.7571 4.2431 18.9064 4.37851 19.0106 4.55212C19.1147 4.72574 19.1668 4.91671 19.1668 5.12504V14.7709C19.1668 15.1598 19.0106 15.4549 18.6981 15.6563C18.3856 15.8577 18.0766 15.8612 17.771 15.6667C17.2988 15.4723 16.8196 15.316 16.3335 15.198C15.8474 15.0799 15.3474 15.0209 14.8335 15.0209C14.0835 15.0209 13.3474 15.132 12.6252 15.3542C11.9029 15.5764 11.2224 15.8889 10.5835 16.2917C10.5141 16.3473 10.4342 16.3855 10.3439 16.4063C10.2536 16.4271 10.1529 16.4375 10.0418 16.4375Z" fill="url(#paint0_linear_10_92)"/>
<defs>
<linearGradient id="paint0_linear_10_92" x1="10.0002" y1="3.33337" x2="10.0002" y2="16.4375" gradientUnits="userSpaceOnUse">
<stop stop-color="#E2DFD2"/>
<stop offset="1" stop-color="#DBAD0C"/>
</linearGradient>
</defs>
</svg>
