<svg width="20" height="20" viewBox="0 0 20 20" fill="none" xmlns="http://www.w3.org/2000/svg">
<path d="M11.0627 18.3333C10.7432 18.3333 10.5106 18.2291 10.3647 18.0208C10.2189 17.8125 10.2016 17.5555 10.3127 17.25L13.3752 9.12496C13.4585 8.90274 13.6113 8.71524 13.8335 8.56246C14.0557 8.40968 14.2849 8.33329 14.521 8.33329C14.7571 8.33329 14.9897 8.40968 15.2189 8.56246C15.4481 8.71524 15.6043 8.90274 15.6877 9.12496L18.8127 17.1666C18.9377 17.4861 18.9238 17.7604 18.771 17.9895C18.6182 18.2187 18.3613 18.3333 18.0002 18.3333C17.8474 18.3333 17.7016 18.2847 17.5627 18.1875C17.4238 18.0902 17.3266 17.9652 17.271 17.8125L16.5835 15.7083H12.5835L11.7918 17.8333C11.7363 17.9722 11.6391 18.0902 11.5002 18.1875C11.3613 18.2847 11.2154 18.3333 11.0627 18.3333ZM13.0418 14.25H16.0002L14.5418 10.2083H14.5002L13.0418 14.25ZM6.021 7.12496C6.22933 7.48607 6.4585 7.83676 6.7085 8.17704C6.9585 8.51732 7.22933 8.86801 7.521 9.22913C8.146 8.57635 8.66683 7.89926 9.0835 7.19788C9.50016 6.49649 9.85433 5.76385 10.146 4.99996H1.66683C1.43072 4.99996 1.2328 4.9201 1.07308 4.76038C0.913357 4.60065 0.833496 4.40274 0.833496 4.16663C0.833496 3.93051 0.913357 3.7326 1.07308 3.57288C1.2328 3.41315 1.43072 3.33329 1.66683 3.33329H6.66683V2.49996C6.66683 2.26385 6.74669 2.06593 6.90641 1.90621C7.06613 1.74649 7.26405 1.66663 7.50016 1.66663C7.73627 1.66663 7.93419 1.74649 8.09391 1.90621C8.25363 2.06593 8.3335 2.26385 8.3335 2.49996V3.33329H13.3335C13.5696 3.33329 13.7675 3.41315 13.9272 3.57288C14.087 3.7326 14.1668 3.93051 14.1668 4.16663C14.1668 4.40274 14.087 4.60065 13.9272 4.76038C13.7675 4.9201 13.5696 4.99996 13.3335 4.99996H11.8127C11.5071 5.95829 11.1009 6.89926 10.5939 7.82288C10.087 8.74649 9.46544 9.62496 8.72933 10.4583L10.771 12.5208L10.146 14.2083L7.50016 11.6666L3.896 15.2708C3.74322 15.4236 3.55572 15.5 3.3335 15.5C3.11127 15.5 2.92377 15.4166 2.771 15.25C2.60433 15.0972 2.521 14.9097 2.521 14.6875C2.521 14.4652 2.60433 14.2708 2.771 14.1041L6.43766 10.4375C6.07655 10.0069 5.73627 9.57288 5.41683 9.13538C5.09738 8.69788 4.80572 8.24996 4.54183 7.79163C4.37516 7.48607 4.36127 7.22218 4.50016 6.99996C4.63905 6.77774 4.88905 6.66663 5.25016 6.66663C5.40294 6.66663 5.55225 6.71177 5.69808 6.80204C5.84391 6.89232 5.95155 6.99996 6.021 7.12496Z" fill="url(#paint0_linear_10_99)"/>
<defs>
<linearGradient id="paint0_linear_10_99" x1="9.86527" y1="1.66663" x2="9.86527" y2="18.3333" gradientUnits="userSpaceOnUse">
<stop stop-color="#E2DFD2"/>
<stop offset="1" stop-color="#DBAD0C"/>
</linearGradient>
</defs>
</svg>
