<svg width="20" height="20" viewBox="0 0 10 10" fill="none" xmlns="http://www.w3.org/2000/svg">
<mask id="mask0_10_120" style="mask-type:alpha" maskUnits="userSpaceOnUse" x="0" y="0" width="10" height="10">
<rect width="10" height="10" fill="#D9D9D9"/>
</mask>
<g mask="url(#mask0_10_120)">
<path d="M1.66683 8.33329C1.43766 8.33329 1.24155 8.25176 1.0785 8.08871C0.915163 7.92538 0.833496 7.72913 0.833496 7.49996V2.49996C0.833496 2.27079 0.915163 2.07468 1.0785 1.91163C1.24155 1.74829 1.43766 1.66663 1.66683 1.66663H8.3335C8.56266 1.66663 8.75891 1.74829 8.92225 1.91163C9.0853 2.07468 9.16683 2.27079 9.16683 2.49996V7.49996C9.16683 7.72913 9.0853 7.92538 8.92225 8.08871C8.75891 8.25176 8.56266 8.33329 8.3335 8.33329H1.66683ZM5.00016 5.41663L1.66683 3.33329V7.49996H8.3335V3.33329L5.00016 5.41663ZM5.00016 4.58329L8.3335 2.49996H1.66683L5.00016 4.58329ZM1.66683 3.33329V2.49996V7.49996V3.33329Z" fill="#1C1B1F"/>
</g>
</svg>
