<svg width="136" height="47" viewBox="0 0 136 47" fill="none" xmlns="http://www.w3.org/2000/svg">
<path d="M13.0639 5.328V31.392C13.0639 31.776 13.1599 32.096 13.3519 32.352C13.5439 32.576 13.7999 32.736 14.1199 32.832C14.4719 32.928 14.8399 32.992 15.2239 33.024C15.6399 33.056 16.0399 33.072 16.4239 33.072H17.2399V36H0.439941V33.072H0.919941C1.75194 33.072 2.43994 32.96 2.98394 32.736C3.52794 32.512 3.79994 32.048 3.79994 31.344V6.576C3.79994 5.872 3.52794 5.408 2.98394 5.184C2.43994 4.96 1.75194 4.848 0.919941 4.848H0.439941V1.92H27.0799V11.472H23.4319L22.9519 7.44C22.8879 6.864 22.6639 6.432 22.2799 6.144C21.8959 5.824 21.3519 5.616 20.6479 5.52C19.9439 5.392 19.0639 5.328 18.0079 5.328H13.0639ZM11.7679 17.376C13.1439 17.28 14.4559 17.2 15.7039 17.136C16.9519 17.072 18.1839 17.008 19.3999 16.944C20.6479 16.848 21.8639 16.752 23.0479 16.656V21.12C21.8319 20.992 20.6159 20.88 19.3999 20.784C18.1839 20.688 16.9359 20.608 15.6559 20.544C14.4079 20.448 13.1119 20.384 11.7679 20.352V17.376Z" fill="#0C0E13"/>
<path d="M36.8284 7.92C35.3884 7.92 34.2364 7.584 33.3724 6.912C32.5084 6.208 32.0764 5.232 32.0764 3.984C32.0764 2.736 32.5084 1.776 33.3724 1.104C34.2364 0.400003 35.3884 0.0480042 36.8284 0.0480042C38.3004 0.0480042 39.4524 0.400003 40.2844 1.104C41.1484 1.776 41.5804 2.736 41.5804 3.984C41.5804 5.232 41.1484 6.208 40.2844 6.912C39.4524 7.584 38.3004 7.92 36.8284 7.92ZM41.3404 11.328V31.824C41.3404 32.4 41.5804 32.784 42.0604 32.976C42.5404 33.168 43.1324 33.264 43.8364 33.264H43.8844V36H30.0124V33.264H30.0604C30.7644 33.264 31.3564 33.168 31.8364 32.976C32.3164 32.784 32.5564 32.4 32.5564 31.824V15.888C32.5564 15.376 32.3804 15.024 32.0284 14.832C31.7084 14.64 31.1644 14.464 30.3964 14.304L29.9644 14.208V11.328H41.3404Z" fill="#0C0E13"/>
<path d="M57.1351 0.576003V31.824C57.1351 32.4 57.3751 32.784 57.8551 32.976C58.3351 33.168 58.9431 33.264 59.6791 33.264H59.7271V36H45.8071V33.264H45.8551C46.5911 33.264 47.1991 33.168 47.6791 32.976C48.1591 32.784 48.3991 32.4 48.3991 31.824V5.088C48.3991 4.768 48.3191 4.512 48.1591 4.32C47.9991 4.128 47.7591 3.968 47.4391 3.84C47.1511 3.712 46.7511 3.6 46.2391 3.504L45.8071 3.408V0.576003H57.1351Z" fill="#0C0E13"/>
<path d="M68.4691 7.92C67.0291 7.92 65.8771 7.584 65.0131 6.912C64.1491 6.208 63.7171 5.232 63.7171 3.984C63.7171 2.736 64.1491 1.776 65.0131 1.104C65.8771 0.400003 67.0291 0.0480042 68.4691 0.0480042C69.9411 0.0480042 71.0931 0.400003 71.9251 1.104C72.7891 1.776 73.2211 2.736 73.2211 3.984C73.2211 5.232 72.7891 6.208 71.9251 6.912C71.0931 7.584 69.9411 7.92 68.4691 7.92ZM72.9811 11.328V31.824C72.9811 32.4 73.2211 32.784 73.7011 32.976C74.1811 33.168 74.7731 33.264 75.4771 33.264H75.5251V36H61.6531V33.264H61.7011C62.4051 33.264 62.9971 33.168 63.4771 32.976C63.9571 32.784 64.1971 32.4 64.1971 31.824V15.888C64.1971 15.376 64.0211 15.024 63.6691 14.832C63.3491 14.64 62.8051 14.464 62.0371 14.304L61.6051 14.208V11.328H72.9811Z" fill="#0C0E13"/>
<path d="M92.2797 46.704H77.4477V43.968H77.4957C77.9757 43.968 78.4077 43.92 78.7917 43.824C79.1757 43.76 79.4637 43.616 79.6557 43.392C79.8797 43.2 79.9917 42.912 79.9917 42.528V15.888C79.9917 15.536 79.9117 15.28 79.7517 15.12C79.6237 14.928 79.3997 14.768 79.0797 14.64C78.7597 14.512 78.3437 14.4 77.8317 14.304L77.4477 14.208V11.328H88.1997V17.52L88.7757 17.616V43.536C88.7757 43.632 88.9357 43.712 89.2557 43.776C89.5757 43.84 89.9597 43.888 90.4077 43.92C90.8877 43.952 91.3197 43.968 91.7037 43.968H92.2797V46.704ZM95.7837 36.48C94.4717 36.48 93.3037 36.32 92.2797 36C91.2877 35.68 90.3917 35.168 89.5917 34.464C88.7917 33.76 88.0557 32.864 87.3837 31.776L87.7677 26.832C88.2157 27.984 88.6957 28.992 89.2077 29.856C89.7517 30.688 90.3597 31.328 91.0317 31.776C91.7357 32.224 92.5357 32.448 93.4317 32.448C94.2317 32.448 94.9357 32.24 95.5437 31.824C96.1517 31.408 96.6477 30.816 97.0317 30.048C97.4157 29.248 97.7037 28.288 97.8957 27.168C98.0877 26.048 98.1837 24.784 98.1837 23.376C98.1837 22.032 98.0877 20.832 97.8957 19.776C97.7037 18.72 97.4157 17.84 97.0317 17.136C96.6797 16.432 96.2317 15.904 95.6877 15.552C95.1437 15.168 94.5037 14.976 93.7677 14.976C92.8717 14.976 92.0717 15.232 91.3677 15.744C90.6637 16.224 90.0077 16.928 89.3997 17.856C88.7917 18.784 88.2157 19.888 87.6717 21.168L87.3837 16.896C88.1517 15.552 88.9517 14.432 89.7837 13.536C90.6477 12.64 91.5917 11.968 92.6157 11.52C93.6717 11.072 94.8877 10.848 96.2637 10.848C98.4717 10.848 100.392 11.376 102.024 12.432C103.656 13.456 104.92 14.912 105.816 16.8C106.712 18.688 107.16 20.88 107.16 23.376C107.16 25.936 106.68 28.208 105.72 30.192C104.76 32.144 103.432 33.68 101.736 34.8C100.04 35.92 98.0557 36.48 95.7837 36.48Z" fill="#0C0E13"/>
<path d="M119.007 23.76C119.007 25.264 119.135 26.592 119.391 27.744C119.647 28.864 120.047 29.808 120.591 30.576C121.135 31.344 121.807 31.92 122.607 32.304C123.439 32.688 124.415 32.88 125.535 32.88C126.687 32.88 127.679 32.656 128.511 32.208C129.375 31.76 130.111 31.184 130.719 30.48C131.359 29.776 131.887 29.056 132.303 28.32L135.087 30.288C134.479 31.504 133.679 32.592 132.687 33.552C131.695 34.48 130.495 35.2 129.087 35.712C127.711 36.224 126.063 36.48 124.143 36.48C121.359 36.48 118.911 35.968 116.799 34.944C114.687 33.92 113.055 32.448 111.903 30.528C110.751 28.608 110.175 26.352 110.175 23.76C110.175 21.168 110.735 18.912 111.855 16.992C113.007 15.04 114.575 13.536 116.559 12.48C118.543 11.392 120.783 10.848 123.279 10.848C125.295 10.848 127.055 11.152 128.559 11.76C130.063 12.336 131.327 13.216 132.351 14.4C133.407 15.552 134.207 16.992 134.751 18.72C135.295 20.448 135.567 22.464 135.567 24.768H117.375V21.6H128.463L127.407 22.848C127.375 21.216 127.279 19.856 127.119 18.768C126.959 17.648 126.719 16.768 126.399 16.128C126.079 15.456 125.679 14.992 125.199 14.736C124.719 14.448 124.143 14.304 123.471 14.304C122.799 14.304 122.191 14.48 121.647 14.832C121.103 15.184 120.623 15.744 120.207 16.512C119.823 17.28 119.519 18.256 119.295 19.44C119.103 20.624 119.007 22.064 119.007 23.76Z" fill="#0C0E13"/>
</svg>
