<svg width="20" height="20" viewBox="0 0 15 15" fill="none" xmlns="http://www.w3.org/2000/svg">
<mask id="mask0_11_169" style="mask-type:alpha" maskUnits="userSpaceOnUse" x="0" y="0" width="15" height="15">
<rect width="15" height="15" fill="#D9D9D9"/>
</mask>
<g mask="url(#mask0_11_169)">
<path d="M9.6875 6.875C9.94792 6.875 10.1692 6.78375 10.3512 6.60125C10.5338 6.41917 10.625 6.19792 10.625 5.9375C10.625 5.67708 10.5338 5.45583 10.3512 5.27375C10.1692 5.09125 9.94792 5 9.6875 5C9.42708 5 9.20583 5.09125 9.02375 5.27375C8.84125 5.45583 8.75 5.67708 8.75 5.9375C8.75 6.19792 8.84125 6.41917 9.02375 6.60125C9.20583 6.78375 9.42708 6.875 9.6875 6.875ZM5.3125 6.875C5.57292 6.875 5.79417 6.78375 5.97625 6.60125C6.15875 6.41917 6.25 6.19792 6.25 5.9375C6.25 5.67708 6.15875 5.45583 5.97625 5.27375C5.79417 5.09125 5.57292 5 5.3125 5C5.05208 5 4.83083 5.09125 4.64875 5.27375C4.46625 5.45583 4.375 5.67708 4.375 5.9375C4.375 6.19792 4.46625 6.41917 4.64875 6.60125C4.83083 6.78375 5.05208 6.875 5.3125 6.875ZM7.5 10.9375C8.20833 10.9375 8.85167 10.7371 9.43 10.3363C10.0079 9.935 10.4271 9.40625 10.6875 8.75H4.3125C4.57292 9.40625 4.99229 9.935 5.57063 10.3363C6.14854 10.7371 6.79167 10.9375 7.5 10.9375ZM7.5 13.75C6.63542 13.75 5.82292 13.5858 5.0625 13.2575C4.30208 12.9296 3.64062 12.4844 3.07813 11.9219C2.51563 11.3594 2.07042 10.6979 1.7425 9.9375C1.41417 9.17708 1.25 8.36458 1.25 7.5C1.25 6.63542 1.41417 5.82292 1.7425 5.0625C2.07042 4.30208 2.51563 3.64062 3.07813 3.07813C3.64062 2.51563 4.30208 2.07021 5.0625 1.74187C5.82292 1.41396 6.63542 1.25 7.5 1.25C8.36458 1.25 9.17708 1.41396 9.9375 1.74187C10.6979 2.07021 11.3594 2.51563 11.9219 3.07813C12.4844 3.64062 12.9296 4.30208 13.2575 5.0625C13.5858 5.82292 13.75 6.63542 13.75 7.5C13.75 8.36458 13.5858 9.17708 13.2575 9.9375C12.9296 10.6979 12.4844 11.3594 11.9219 11.9219C11.3594 12.4844 10.6979 12.9296 9.9375 13.2575C9.17708 13.5858 8.36458 13.75 7.5 13.75ZM7.5 12.5C8.89583 12.5 10.0781 12.0156 11.0469 11.0469C12.0156 10.0781 12.5 8.89583 12.5 7.5C12.5 6.10417 12.0156 4.92187 11.0469 3.95312C10.0781 2.98437 8.89583 2.5 7.5 2.5C6.10417 2.5 4.92187 2.98437 3.95312 3.95312C2.98437 4.92187 2.5 6.10417 2.5 7.5C2.5 8.89583 2.98437 10.0781 3.95312 11.0469C4.92187 12.0156 6.10417 12.5 7.5 12.5Z" fill="#1C1B1F"/>
</g>
</svg>
